<svg width="327" height="359" viewBox="0 0 327 359" fill="none" xmlns="http://www.w3.org/2000/svg">
<rect x="7.5" y="7.5" width="312" height="344" stroke="black" stroke-width="15"/>
<path d="M42.264 284L42.264 53.6L76.536 53.6C89.592 53.6 99.096 56.48 105.048 62.24C111.192 68 114.36 77.504 114.552 90.752C114.552 100.352 114.552 108.8 114.552 116.096C114.552 123.2 114.456 130.112 114.264 136.832C113.88 144.896 112.344 151.232 109.656 155.84C106.968 160.256 102.744 163.52 96.984 165.632V170.816C108.312 174.656 114.168 184.352 114.552 199.904C114.744 208.352 114.84 216.224 114.84 223.52C114.84 230.624 114.744 238.4 114.552 246.848C114.168 260.096 111 269.6 105.048 275.36C99.288 281.12 89.784 284 76.536 284H42.264ZM61.272 159.584H76.248C88.536 159.584 94.872 151.904 95.256 136.544C95.832 120.992 95.832 105.44 95.256 89.888C94.872 77.216 88.632 70.88 76.536 70.88H61.272L61.272 159.584ZM61.272 266.72H76.536C88.824 266.72 95.16 260 95.544 246.56C96.12 231.2 96.12 215.84 95.544 200.48C95.352 191.84 93.624 185.696 90.36 182.048C87.288 178.4 82.296 176.576 75.384 176.576H61.272L61.272 266.72Z" fill="black"/>
<path d="M165.056 284L149.504 53.6H168.8L173.696 140.288L180.032 266.72H185.216L192.704 140.288L202.208 55.04H232.16L241.664 140.288L249.44 266.72H254.336L260.96 140.288L266.144 53.6L285.152 53.6L269.312 284H235.04L227.84 208.544L219.776 71.744H214.592L206.528 208.544L199.328 284H165.056Z" fill="black"/>
<path d="M41 300H154.013H270" stroke="black" stroke-width="13"/>
</svg>
